HIERARCHY
ROOT Hips
{
	OFFSET 0.000000 0.000000 0.000000
	CHANNELS 6 Xposition Yposition Zposition Xrotation Yrotation Zrotation
	JOINT LeftUpLeg_virtual
	{
		OFFSET 0.000000 0.000000 0.000000
		CHANNELS 3 Xrotation Yrotation Zrotation
		JOINT LeftUpLeg
		{
			OFFSET 13.026900 -6.336304 -1.092800
			CHANNELS 3 Xrotation Yrotation Zrotation
			JOINT LeftLeg
			{
				OFFSET 0.524474 -46.096886 9.782700
				CHANNELS 3 Xrotation Yrotation Zrotation
				JOINT LeftFoot
				{
					OFFSET -0.524474 -53.427422 -12.948200
					CHANNELS 3 Xrotation Yrotation Zrotation
					JOINT LeftToeBase
					{
						OFFSET 0.192200 -14.009700 16.364100
						CHANNELS 3 Xrotation Yrotation Zrotation
						JOINT LeftToe_End
						{
							OFFSET -1.784700 -0.561700 9.474800
							CHANNELS 3 Xrotation Yrotation Zrotation
							End Site
							{
								OFFSET 0 0 0
							}
						}
					}
				}
			}
		}
	}
	JOINT RightUpLeg_virtual
	{
		OFFSET 0.000000 0.000000 0.000000
		CHANNELS 3 Xrotation Yrotation Zrotation
		JOINT RightUpLeg
		{
			OFFSET -12.883000 -6.336304 -1.092800
			CHANNELS 3 Xrotation Yrotation Zrotation
			JOINT RightLeg
			{
				OFFSET -0.524587 -46.096825 9.782800
				CHANNELS 3 Xrotation Yrotation Zrotation
				JOINT RightFoot
				{
					OFFSET 0.524587 -53.427383 -12.948300
					CHANNELS 3 Xrotation Yrotation Zrotation
					JOINT RightToeBase
					{
						OFFSET -0.192200 -14.009700 16.364100
						CHANNELS 3 Xrotation Yrotation Zrotation
						JOINT RightToe_End
						{
							OFFSET 1.784700 -0.561700 9.474800
							CHANNELS 3 Xrotation Yrotation Zrotation
							End Site
							{
								OFFSET 0 0 0
							}
						}
					}
				}
			}
		}
	}
	JOINT Spine_virtual
	{
		OFFSET 0.000000 0.000000 0.000000
		CHANNELS 3 Xrotation Yrotation Zrotation
		JOINT Spine
		{
			OFFSET 0.072000 7.257294 -0.789700
			CHANNELS 3 Xrotation Yrotation Zrotation
			JOINT Spine1
			{
				OFFSET 0.000000 12.508769 -0.658067
				CHANNELS 3 Xrotation Yrotation Zrotation
				JOINT Spine1_split
				{
					OFFSET 0.000000 12.508769 -0.658067
					CHANNELS 3 Xrotation Yrotation Zrotation
					JOINT Spine2
					{
						OFFSET 0.000000 12.508769 -0.658067
						CHANNELS 3 Xrotation Yrotation Zrotation
						JOINT Neck_virtual
						{
							OFFSET 0.000000 0.000000 0.000000
							CHANNELS 3 Xrotation Yrotation Zrotation
							JOINT Neck
							{
								OFFSET 0.000000 14.033295 7.520400
								CHANNELS 3 Xrotation Yrotation Zrotation
								JOINT Head
								{
									OFFSET 0.000000 8.198502 5.703100
									CHANNELS 3 Xrotation Yrotation Zrotation
									JOINT HeadTop_End
									{
										OFFSET 0.000000 17.760803 13.332701
										CHANNELS 3 Xrotation Yrotation Zrotation
										End Site
										{
											OFFSET 0 0 0
										}
									}
								}
							}
						}
						JOINT LeftShoulder_virtual
						{
							OFFSET 0.000000 0.000000 0.000000
							CHANNELS 3 Xrotation Yrotation Zrotation
							JOINT LeftShoulder
							{
								OFFSET 6.292450 5.785301 -0.669000
								CHANNELS 3 Xrotation Yrotation Zrotation
								JOINT LeftShoulder_split
								{
									OFFSET 6.292450 5.785301 -0.669000
									CHANNELS 3 Xrotation Yrotation Zrotation
									JOINT LeftArm
									{
										OFFSET 13.907140 -6.093903 1.965100
										CHANNELS 3 Xrotation Yrotation Zrotation
										JOINT LeftForeArm
										{
											OFFSET 34.140198 0.000000 0.000000
											CHANNELS 3 Xrotation Yrotation Zrotation
											JOINT LeftHand
											{
												OFFSET 40.960209 0.000000 0.000000
												CHANNELS 3 Xrotation Yrotation Zrotation
												End Site
												{
													OFFSET 0 0 0
												}
											}
										}
									}
								}
							}
						}
						JOINT RightShoulder_virtual
						{
							OFFSET 0.000000 0.000000 0.000000
							CHANNELS 3 Xrotation Yrotation Zrotation
							JOINT RightShoulder
							{
								OFFSET -6.292450 5.785301 -0.669000
								CHANNELS 3 Xrotation Yrotation Zrotation
								JOINT RightShoulder_split
								{
									OFFSET -6.292450 5.785301 -0.669000
									CHANNELS 3 Xrotation Yrotation Zrotation
									JOINT RightArm
									{
										OFFSET -13.907140 -6.093903 1.965100
										CHANNELS 3 Xrotation Yrotation Zrotation
										JOINT RightForeArm
										{
											OFFSET -34.140198 0.000000 0.000000
											CHANNELS 3 Xrotation Yrotation Zrotation
											JOINT RightHand
											{
												OFFSET -40.960209 0.000000 0.000000
												CHANNELS 3 Xrotation Yrotation Zrotation
												End Site
												{
													OFFSET 0 0 0
												}
											}
										}
									}
								}
							}
						}
					}
				}
			}
		}
	}
}
MOTION
Frames: 6
Frame Time: 0.03333333
-0.086528 94.466362 -0.178570 0.000000 0.000000 0.000000 -5.399412 -46.427429 -0.217661 -35.094871 6.482897 17.943569 57.627098 -6.303604 4.336281 -19.842635 -8.003829 -15.604815 -1.594025 0.000002 0.000000 0.000000 0.000000 0.000000 -5.399412 -46.427429 -0.217661 -25.791074 -8.564250 -30.187951 56.910868 -8.362139 -7.381928 -21.920160 -6.263944 23.241061 -0.013009 0.000001 0.000006 0.000000 0.000000 0.000000 -5.399412 -46.427429 -0.217661 9.459025 7.380312 -1.672755 2.187715 0.989897 -0.915630 0.000000 0.000000 0.000000 0.000000 0.000000 0.000000 2.202830 0.982772 -0.894153 0.084652 13.220563 4.538679 8.920923 20.138142 -4.130236 0.000000 0.000000 0.000000 2.202830 0.982772 -0.894153 1.117178 3.546348 -8.633310 0.000000 0.000000 0.000000 -53.487003 4.935516 -51.502990 -179.999855 -73.641938 -179.999841 0.000000 0.000000 0.000000 2.202830 0.982772 -0.894153 3.036128 13.027199 -5.371408 0.000000 0.000000 0.000000 -48.713722 27.172828 83.457084 -179.999923 74.011698 179.999937 0.000000 0.000000 0.000000 
0.199018 93.322205 1.131979 0.000000 0.000000 0.000000 -4.838419 -47.065874 0.070796 -36.258384 6.130973 17.762095 60.396159 -5.936161 4.162871 -21.003364 -7.149290 -15.320874 -1.953562 -0.000007 0.000001 0.000000 0.000000 0.000000 -4.838419 -47.065874 0.070796 -26.875478 -8.146489 -31.167642 58.041261 -6.643075 -7.395545 -22.247203 -6.997309 23.379539 -0.009094 -0.000013 -0.000001 0.000000 0.000000 0.000000 -4.838419 -47.065874 0.070796 9.954895 7.651005 -2.117571 1.916819 1.031760 -0.894298 0.000000 0.000000 0.000000 0.000000 0.000000 0.000000 1.931407 1.025008 -0.876845 0.148175 13.275049 4.803506 8.434756 20.259439 -3.299773 0.000000 0.000000 0.000000 1.931407 1.025008 -0.876845 1.110768 3.630398 -8.655379 0.000000 0.000000 0.000000 -52.841779 5.112491 -51.141694 179.999937 -73.431951 179.999937 0.000000 0.000000 0.000000 1.931407 1.025008 -0.876845 3.169172 13.274905 -5.296746 0.000000 0.000000 0.000000 -48.735756 27.444503 83.446176 179.999909 74.154271 -179.999896 0.000000 0.000000 0.000000 
0.598058 91.651352 2.754225 0.000000 0.000000 0.000000 -4.759765 -48.001524 0.091718 -38.148942 5.328470 18.012208 64.767945 -5.929628 3.927360 -21.107993 -6.664239 -17.005342 -3.625908 -0.002272 0.378827 0.000000 0.000000 0.000000 -4.759765 -48.001524 0.091718 -28.172276 -7.609776 -32.499577 59.729335 -4.279192 -7.812420 -22.799026 -7.862454 23.620637 0.036722 -0.000039 0.044663 0.000000 0.000000 0.000000 -4.759765 -48.001524 0.091718 10.858097 7.914204 -2.155007 1.532801 1.076083 -0.997165 0.000000 0.000000 0.000000 0.000000 0.000000 0.000000 1.549265 1.064464 -0.986855 0.226160 13.411180 5.018146 7.791679 20.556335 -2.405646 0.000000 0.000000 0.000000 1.549265 1.064464 -0.986855 1.121899 3.790809 -8.776299 0.000000 0.000000 0.000000 -51.604074 5.785254 -50.502897 179.999841 -72.464803 179.999814 0.000000 0.000000 0.000000 1.549265 1.064464 -0.986855 3.247805 13.568187 -5.304378 0.000000 0.000000 0.000000 -48.562095 27.955845 83.361264 179.999978 74.257960 -179.999950 0.000000 0.000000 0.000000 
1.205967 89.361984 4.877151 0.000000 0.000000 0.000000 -5.294022 -49.114675 -0.305722 -41.268625 3.636776 18.718427 71.092277 -6.689813 3.680787 -18.683779 -7.198105 -21.526019 -7.025089 -0.118383 2.681182 0.000000 0.000000 0.000000 -5.294022 -49.114675 -0.305722 -29.484769 -6.923283 -34.285053 61.886172 -1.260503 -8.685352 -23.494679 -8.898580 24.136639 0.080215 -0.000152 0.094731 0.000000 0.000000 0.000000 -5.294022 -49.114675 -0.305722 12.467444 8.280429 -1.674140 0.995853 1.138774 -1.199804 0.000000 0.000000 0.000000 0.000000 0.000000 0.000000 1.016576 1.114868 -1.201558 0.302733 13.587386 5.199543 7.304533 20.933606 -1.731036 0.000000 0.000000 0.000000 1.016576 1.114868 -1.201558 1.177511 3.931814 -9.010047 0.000000 0.000000 0.000000 -49.846318 7.032375 -49.753611 179.999991 -71.166944 179.999991 0.000000 0.000000 0.000000 1.016576 1.114868 -1.201558 3.139968 13.746667 -5.470687 0.000000 0.000000 0.000000 -48.025430 28.850521 83.319886 -179.999800 74.486034 179.999814 0.000000 0.000000 0.000000 
2.052985 86.604370 7.576515 0.000000 0.000000 0.000000 -6.278829 -50.443338 -1.025327 -45.390651 1.314001 19.817620 78.742136 -7.415844 3.418689 -15.221321 -10.139574 -26.484979 -7.927167 -0.316118 4.305543 0.000000 0.000000 0.000000 -6.278829 -50.443338 -1.025327 -30.785739 -5.961380 -36.653817 64.182051 2.313207 -9.754834 -24.033974 -9.990782 24.923212 0.097304 -0.000192 0.114379 0.000000 0.000000 0.000000 -6.278829 -50.443338 -1.025327 14.368300 8.764893 -0.825022 0.424838 1.216733 -1.428606 0.000000 0.000000 0.000000 0.000000 0.000000 0.000000 0.450687 1.174178 -1.444916 0.205574 13.834950 5.409455 7.350726 21.656874 -1.627157 0.000000 0.000000 0.000000 0.450687 1.174178 -1.444916 1.261340 4.095658 -9.344290 0.000000 0.000000 0.000000 -47.712211 8.648736 -48.870406 -179.999855 -69.606267 -179.999855 0.000000 0.000000 0.000000 0.450687 1.174178 -1.444916 2.992453 13.783376 -5.631409 0.000000 0.000000 0.000000 -47.719106 30.227928 83.551334 -179.999964 75.092985 179.999964 0.000000 0.000000 0.000000 
3.124347 83.798187 10.966055 0.000000 0.000000 0.000000 -7.160188 -52.489222 -1.662293 -49.705155 -1.175643 21.792024 85.783706 -8.194841 2.712022 -11.500484 -14.360801 -29.558651 -5.557038 -0.353852 4.543096 0.000000 0.000000 0.000000 -7.160188 -52.489222 -1.662293 -32.212654 -4.150985 -40.058766 65.873411 6.688788 -9.778890 -23.888704 -10.584482 25.590917 0.085629 -0.000136 0.100670 0.000000 0.000000 0.000000 -7.160188 -52.489222 -1.662293 16.143936 9.074442 0.086254 -0.146074 1.269157 -1.694877 0.000000 0.000000 0.000000 0.000000 0.000000 0.000000 -0.114771 1.203169 -1.725557 -0.234662 14.288832 5.546313 8.052024 23.346343 -2.569384 0.000000 0.000000 0.000000 -0.114771 1.203169 -1.725557 1.258250 4.648346 -9.768065 0.000000 0.000000 0.000000 -44.491186 10.801633 -47.244094 179.999950 -66.706838 179.999923 0.000000 0.000000 0.000000 -0.114771 1.203169 -1.725557 2.956454 13.734562 -5.656083 0.000000 0.000000 0.000000 -48.042499 32.407646 84.409909 -179.999704 76.127130 179.999691 0.000000 0.000000 0.000000 
